<?xml version="1.0" encoding="iso-8859-1"?>
<!-- Generator: Adobe Illustrator 19.0.0, SVG Export Plug-In . SVG Version: 6.00 Build 0)  -->
<svg version="1.1" id="Capa_1" xmlns="http://www.w3.org/2000/svg" xmlns:xlink="http://www.w3.org/1999/xlink" x="0px" y="0px"
	 viewBox="0 0 512 512" style="enable-background:new 0 0 512 512;" xml:space="preserve">
<path style="fill:#E0E0E2;" d="M100.888,335.033v21.943l-8.029,8.029H80.888l0,0H42.667c-3.135-3.135-4.893-4.893-8.029-8.029
	v-21.943c3.135-3.135,4.893-4.893,8.029-8.029h21.971l0,0h28.221C95.995,330.14,97.753,331.898,100.888,335.033z M92.859,417.01
	H42.667c-3.135,3.135-4.893,4.893-8.029,8.029v21.943c3.135,3.135,4.893,4.893,8.029,8.029H92.86
	c3.135-3.135,4.893-4.893,8.029-8.029v-21.943L92.859,417.01z M92.859,237H80.888l0,0H42.667c-3.135,3.135-4.893,4.893-8.029,8.029
	v21.943c3.135,3.135,4.893,4.893,8.029,8.029h21.971l0,0h28.221c3.135-3.135,4.893-4.893,8.029-8.029v-21.943L92.859,237z
	 M92.859,56.991H42.667c-3.135,3.135-4.893,4.893-8.029,8.029v21.943c3.135,3.135,4.893,4.893,8.029,8.029H92.86
	c3.135-3.135,4.893-4.893,8.029-8.029V65.019L92.859,56.991z M92.859,146.995H64.638l0,0H42.667
	c-3.135,3.135-4.893,4.893-8.029,8.029v21.943c3.135,3.135,4.893,4.893,8.029,8.029h38.221l0,0h11.971
	c3.135-3.135,4.893-4.893,8.029-8.029v-21.943L92.859,146.995z"/>
<path style="fill:#FFB655;" d="M57.93,7.5v49.491h34.929l8.029,8.029v21.943c-3.135,3.135-4.893,4.893-8.029,8.029H57.93v52.005
	h6.708l0,0h28.221l8.029,8.029v21.943c-3.135,3.135-4.893,4.893-8.029,8.029H80.888l0,0H57.93V237h22.958l0,0h11.971l8.029,8.029
	v21.943c-3.135,3.135-4.893,4.893-8.029,8.029H64.638l0,0H57.93v52.005h6.708l0,0h28.221c3.135,3.135,4.893,4.893,8.029,8.029
	v21.943l-8.029,8.029H80.888l0,0H57.93v52.005h34.929l8.029,8.029v21.943c-3.135,3.135-4.893,4.893-8.029,8.029H57.93v49.49h386.833
	V7.5H57.93z"/>
<g>
	<ellipse style="fill:#FF7956;" cx="314.352" cy="256.004" rx="117.849" ry="117.849"/>
	<polygon style="fill:#FF7956;" points="255.327,121.333 219.011,103.991 182.695,121.333 182.695,7.5 255.327,7.5 	"/>
	<path style="fill:#FF7956;" d="M464.896,130.441h-20.133V46.735h20.133c4.868,4.868,7.598,7.598,12.466,12.466v58.774
		C472.494,122.844,469.764,125.573,464.896,130.441z"/>
</g>
<path style="fill:#C2FB3B;" d="M464.896,214.147h-20.133v-83.706h20.133c4.868,4.868,7.598,7.598,12.466,12.466v58.774
	C472.494,206.549,469.764,209.279,464.896,214.147z"/>
<path style="fill:#FFE477;" d="M464.896,297.853h-20.133v-83.706h20.133c4.868,4.868,7.598,7.598,12.466,12.466v58.774
	C472.494,290.255,469.764,292.985,464.896,297.853z"/>
<path style="fill:#C2FB3B;" d="M464.896,381.559h-20.133v-83.706h20.133c4.868,4.868,7.598,7.598,12.466,12.466v58.774
	C472.494,373.961,469.764,376.691,464.896,381.559z"/>
<path style="fill:#FF7956;" d="M464.896,465.265h-20.133v-83.706h20.133c4.868,4.868,7.598,7.598,12.466,12.466v58.774
	C472.494,457.667,469.764,460.396,464.896,465.265z"/>
<ellipse style="fill:#57A4FF;" cx="284.359" cy="255.997" rx="117.849" ry="117.849"/>
<circle style="fill:#006DF0;" cx="314.36" cy="256" r="85.04"/>
<circle style="fill:#FFFFFF;" cx="284.36" cy="256" r="85.04"/>
<circle style="fill:#FFE477;" cx="284.36" cy="256" r="11.687"/>
<polygon style="fill:#FF7956;" points="225.327,121.333 189.011,103.991 152.695,121.333 152.695,7.5 225.327,7.5 "/>
<g>
	<path style="fill:#C6C5CA;" d="M42.667,94.99h30c-3.135-3.135-4.893-4.893-8.029-8.029V65.019c3.135-3.135,4.893-4.893,8.029-8.029
		h-30c-3.135,3.135-4.893,4.893-8.029,8.029v21.943C37.773,90.097,39.531,91.855,42.667,94.99z"/>
	<path style="fill:#C6C5CA;" d="M42.667,184.995h30c-3.135-3.135-4.893-4.893-8.029-8.029v-21.943
		c3.135-3.135,4.893-4.893,8.029-8.029H92.86l0,0H64.638l0,0H42.667c-3.135,3.135-4.893,4.893-8.029,8.029v21.943
		C37.773,180.102,39.531,181.86,42.667,184.995z"/>
	<path style="fill:#C6C5CA;" d="M64.638,446.981v-21.943c3.135-3.135,4.893-4.893,8.029-8.029h-30
		c-3.135,3.135-4.893,4.893-8.029,8.029v21.943c3.135,3.135,4.893,4.893,8.029,8.029h30
		C69.531,451.874,67.773,450.116,64.638,446.981z"/>
	<path style="fill:#C6C5CA;" d="M42.667,365.005h30c-3.135-3.135-4.893-4.893-8.029-8.029v-21.943
		c3.135-3.135,4.893-4.893,8.029-8.029H92.86l0,0H64.638l0,0H42.667c-3.135,3.135-4.893,4.893-8.029,8.029v21.943
		C37.773,360.112,39.531,361.869,42.667,365.005z"/>
	<path style="fill:#C6C5CA;" d="M42.667,275h21.971l0,0h28.221l0,0H72.667c-3.135-3.135-4.893-4.893-8.029-8.029v-21.943
		c3.135-3.135,4.893-4.893,8.029-8.029h-30c-3.135,3.135-4.893,4.893-8.029,8.029v21.943C37.773,270.107,39.531,271.865,42.667,275z
		"/>
</g>
<g>
	<polygon style="fill:#FF7956;" points="64.638,146.995 87.93,146.995 87.93,94.99 57.93,94.99 57.93,146.995 	"/>
	<rect x="57.93" y="7.5" style="fill:#FF7956;" width="30" height="49.49"/>
	<path style="fill:#FF7956;" d="M92.859,56.99l8.029,8.029v21.943c-3.135,3.135-4.893,4.893-8.029,8.029h30
		c3.135-3.135,4.893-4.893,8.029-8.029V65.019l-8.029-8.029C122.859,56.99,92.859,56.99,92.859,56.99z"/>
	<path style="fill:#FF7956;" d="M92.859,455.01h30c3.135-3.135,4.893-4.893,8.029-8.029v-21.943l-8.029-8.029h-30l8.029,8.029
		v21.943C97.753,450.116,95.995,451.874,92.859,455.01z"/>
	<rect x="57.93" y="455.01" style="fill:#FF7956;" width="30" height="49.49"/>
	<path style="fill:#FF7956;" d="M87.93,365.005h22.958l0,0h11.971l8.029-8.029v-21.943c-3.135-3.135-4.893-4.893-8.029-8.029H94.638
		l0,0H92.86c3.135,3.135,4.893,4.893,8.028,8.029v21.943l-8.029,8.029H80.888l0,0H57.93v52.005h30V365.005z"/>
	<polygon style="fill:#FF7956;" points="64.638,327.005 87.93,327.005 87.93,275 64.638,275 64.638,275 57.93,275 57.93,327.005 	
		"/>
	<path style="fill:#FF7956;" d="M80.888,237h11.971l8.029,8.029v21.943c-3.135,3.135-4.893,4.893-8.028,8.029h1.778l0,0h28.221
		c3.135-3.135,4.893-4.893,8.029-8.029v-21.943L122.859,237h-11.971l0,0H87.93v-52.005h22.958l0,0h11.971
		c3.135-3.135,4.893-4.893,8.029-8.029v-21.943l-8.029-8.029H94.638l0,0H92.86l8.028,8.029v21.943
		c-3.135,3.135-4.893,4.893-8.029,8.029H80.888l0,0H57.93V237H80.888L80.888,237z"/>
</g>
<rect x="444.76" y="46.735" style="fill:#FF3F62;" width="15" height="83.71"/>
<rect x="444.76" y="130.44" style="fill:#91DC5A;" width="15" height="83.71"/>
<rect x="444.76" y="214.15" style="fill:#FFB655;" width="15" height="83.71"/>
<rect x="444.76" y="297.85" style="fill:#91DC5A;" width="15" height="83.71"/>
<rect x="444.76" y="381.56" style="fill:#FF3F62;" width="15" height="83.71"/>
<path style="fill:#006DF0;" d="M231.026,339.334c-46.024-46.024-46.024-120.645,0-166.669
	c19.189-19.189,43.349-30.377,68.334-33.565c-34.942-4.458-71.499,6.729-98.334,33.565c-46.024,46.024-46.024,120.645,0,166.669
	c26.835,26.835,63.393,38.023,98.334,33.565C274.375,369.711,250.215,358.523,231.026,339.334z"/>
<path style="fill:#E0E0E2;" d="M229.324,256c0-41.847,30.226-76.633,70.037-83.718c-4.869-0.867-9.882-1.319-15-1.319
	c-46.965,0-85.037,38.072-85.037,85.037s38.072,85.037,85.037,85.037c5.118,0,10.131-0.452,15-1.319
	C259.55,332.633,229.324,297.847,229.324,256z"/>
<g>
	<polygon style="fill:#FF3F62;" points="182.695,7.5 152.695,7.5 152.695,121.333 182.695,107.007 	"/>
	<polygon style="fill:#FF3F62;" points="219.011,103.99 204.011,111.154 225.327,121.333 225.327,107.007 	"/>
</g>
<rect x="402.62" y="471.84" width="15" height="15"/>
<rect x="352.62" y="471.84" width="15" height="15"/>
<rect x="327.62" y="471.84" width="15" height="15"/>
<rect x="377.62" y="471.84" width="15" height="15"/>
<path d="M95.965,102.49l12.423-12.423V61.913L95.966,49.49H39.561L27.138,61.913v28.155l12.424,12.422H95.965z M42.138,68.126
	l3.636-3.636h43.979l3.635,3.636v15.729l-3.635,3.635h-43.98l-3.636-3.635V68.126H42.138z"/>
<path d="M108.388,450.086v-28.154L95.966,409.51H39.562l-12.424,12.422v28.155l12.423,12.423h56.405L108.388,450.086z
	 M93.388,443.874l-3.635,3.636h-43.98l-3.636-3.636v-15.729l3.636-3.635h43.979l3.635,3.635L93.388,443.874L93.388,443.874z"/>
<path d="M95.966,372.505l12.422-12.422v-28.156l-12.423-12.422H39.561l-12.423,12.421v28.158l12.423,12.421L95.966,372.505
	L95.966,372.505z M42.138,338.14l3.636-3.635h43.979l3.635,3.635v15.73l-3.635,3.635h-43.98l-3.636-3.635v-15.73H42.138z"/>
<path d="M95.966,282.5l12.422-12.422v-28.156L95.966,229.5H39.561l-12.423,12.421v28.158L39.561,282.5H95.966z M42.138,248.135
	l3.636-3.635h43.979l3.635,3.635v15.73l-3.635,3.635h-43.98l-3.636-3.635v-15.73H42.138z"/>
<path d="M95.966,192.495l12.422-12.422v-28.156l-12.422-12.422H39.561l-12.423,12.423v28.156l12.424,12.421L95.966,192.495
	L95.966,192.495z M42.138,158.131l3.636-3.636h43.979l3.635,3.635v15.73l-3.635,3.635h-43.98l-3.636-3.635v-15.729H42.138z"/>
<g>
	<rect x="377.18" y="33.5" style="fill:#FFFFFF;" width="15" height="15"/>
	<rect x="402.18" y="33.5" style="fill:#FFFFFF;" width="15" height="15"/>
	<rect x="287.36" y="33.5" style="fill:#FFFFFF;" width="79.82" height="15"/>
</g>
<rect x="51.862" y="338.5" width="31.802" height="15"/>
<polygon points="484.862,56.095 468.003,39.235 457.764,39.235 457.764,54.235 461.79,54.235 469.862,62.308 469.862,114.869 
	461.79,122.941 457.764,122.941 457.764,137.941 461.79,137.941 469.862,146.014 469.862,198.575 461.79,206.647 457.764,206.647 
	457.764,221.647 461.79,221.647 469.862,229.72 469.862,282.28 461.79,290.353 457.764,290.353 457.764,305.353 461.79,305.353 
	469.862,313.425 469.862,365.986 461.79,374.059 457.764,374.059 457.764,389.059 461.79,389.059 469.862,397.131 469.862,449.692 
	461.79,457.765 457.764,457.765 457.764,472.765 468.003,472.765 484.862,455.905 484.862,390.918 475.503,381.559 484.862,372.199 
	484.862,307.212 475.503,297.853 484.862,288.493 484.862,223.507 475.503,214.147 484.862,204.788 484.862,139.801 
	475.503,130.441 484.862,121.082 "/>
<rect x="127.19" y="170.96" width="15" height="247.41"/>
<path d="M195.723,167.362c-23.676,23.676-36.715,55.154-36.715,88.638s13.039,64.962,36.715,88.638
	c24.44,24.44,56.534,36.659,88.639,36.656c32.096-0.003,64.203-12.222,88.638-36.656c23.676-23.676,36.715-55.154,36.715-88.638
	S396.676,191.038,373,167.362C324.125,118.489,244.599,118.487,195.723,167.362z M394.714,256c0,29.477-11.479,57.188-32.322,78.03
	c-43.025,43.027-113.036,43.027-156.062,0c-20.844-20.842-32.322-48.554-32.322-78.03s11.479-57.188,32.322-78.03
	c21.513-21.514,49.771-32.271,78.03-32.271c28.26,0,56.519,10.757,78.031,32.271C383.235,198.812,394.714,226.523,394.714,256z"/>
<path d="M191.823,256c0,51.025,41.512,92.537,92.537,92.537s92.538-41.512,92.538-92.537s-41.513-92.537-92.538-92.537
	S191.823,204.975,191.823,256z M361.538,248.5h-10.3v15h10.3c-3.546,36.78-32.897,66.131-69.678,69.677v-10.3h-15v10.3
	c-36.78-3.546-66.131-32.897-69.677-69.677h10.3v-15h-10.3c3.784-39.248,36.953-70.037,77.177-70.037
	C324.585,178.463,357.754,209.252,361.538,248.5z"/>
<path d="M232.418,273.846l-14.182,4.889c6.903,20.028,22.955,36.189,42.938,43.232l4.986-14.146
	C250.457,302.285,237.843,289.585,232.418,273.846z"/>
<path d="M338.481,246.644l14.783-2.545c-1.507-8.75-4.636-17.033-9.299-24.619l-12.779,7.855
	C334.847,233.288,337.301,239.784,338.481,246.644z"/>
<path d="M315.435,193.372c-5.022-2.501-10.341-4.389-15.809-5.61l-3.271,14.639c4.285,0.958,8.455,2.438,12.393,4.399
	L315.435,193.372z"/>
<path d="M326.001,220.235l11.371-9.783c-3.651-4.244-7.809-8.049-12.354-11.308l-8.74,12.191
	C319.855,213.9,323.127,216.895,326.001,220.235z"/>
<path d="M303.548,256c0-2.539-0.496-4.964-1.396-7.184l19.536-19.537l-10.607-10.607l-19.537,19.537
	c-2.22-0.9-4.645-1.396-7.184-1.396c-10.579,0-19.187,8.607-19.187,19.187c0,2.539,0.496,4.964,1.396,7.185l-3.667,3.667
	l10.607,10.605l3.666-3.666c2.22,0.9,4.645,1.396,7.184,1.396c2.41,0,4.719-0.447,6.846-1.262l6.419,6.668l10.807-10.402
	l-6.42-6.669C303,261.21,303.548,258.668,303.548,256z M280.174,256c0-2.309,1.878-4.187,4.187-4.187s4.188,1.878,4.188,4.187
	s-1.879,4.187-4.188,4.187S280.174,258.309,280.174,256z"/>
<rect x="247.436" y="209.427" transform="matrix(-0.7204 0.6935 -0.6935 -0.7204 594.959 211.0767)" width="14.999" height="32.059"/>
<rect x="317.62" y="287.79" width="15" height="15"/>
<rect x="292.62" y="287.79" width="15" height="15"/>
<path d="M232.827,133.226V0h-87.632v133.226l43.816-20.924L232.827,133.226z M160.195,15h57.632v94.44l-28.815-13.762
	l-28.816,13.762V15H160.195z"/>
<g>
	<rect x="192.83" y="20.25" style="fill:#FFFFFF;" width="15" height="15"/>
	<rect x="192.83" y="70.25" style="fill:#FFFFFF;" width="15" height="19.588"/>
	<rect x="192.83" y="45.25" style="fill:#FFFFFF;" width="15" height="15"/>
</g>
<polygon points="65.43,15 132.695,15 132.695,0 50.43,0 50.43,36.99 65.43,36.99 "/>
<polygon points="245.327,15 437.264,15 437.264,497 65.43,497 65.43,475.01 50.43,475.01 50.43,512 452.264,512 452.264,0 
	245.327,0 "/>
<rect x="50.43" y="385" width="15" height="12.01"/>
<rect x="50.43" y="295" width="15" height="12.01"/>
<rect x="50.43" y="205" width="15" height="12.01"/>
<rect x="50.43" y="114.99" width="15" height="12.01"/>
<g>
</g>
<g>
</g>
<g>
</g>
<g>
</g>
<g>
</g>
<g>
</g>
<g>
</g>
<g>
</g>
<g>
</g>
<g>
</g>
<g>
</g>
<g>
</g>
<g>
</g>
<g>
</g>
<g>
</g>
</svg>
